<?xml version="1.0" encoding="utf-8"?>
<!-- Generator: Adobe Illustrator 24.0.1, SVG Export Plug-In . SVG Version: 6.00 Build 0)  -->
<svg version="1.1" id="Layer_1" xmlns="http://www.w3.org/2000/svg" xmlns:xlink="http://www.w3.org/1999/xlink" x="0px" y="0px"
	 viewBox="0 0 110 53" style="enable-background:new 0 0 110 53;" xml:space="preserve">
<g>
	<path d="M30.7,34.2v-4.1c-5.3,0.5-8.9,4.7-9.3,10h4.8C26.5,36.8,28.3,34.7,30.7,34.2"/>
	<path d="M26.2,42h-4.8c0.4,5.3,4,9.5,9.3,10v-4C28.3,47.5,26.5,45.3,26.2,42"/>
	<path d="M37.2,40.2H42c-0.4-5.4-4-9.6-9.4-10v4.1C35.1,34.6,36.9,36.8,37.2,40.2"/>
	<path d="M32.6,47.9V52c5.4-0.5,9-4.6,9.4-10h-4.8C36.9,45.4,35.1,47.5,32.6,47.9"/>
	<path d="M10.5,34c2.3,0,3.8,1.2,5.1,3.5l3.7-1.9c-1.6-3.3-4.6-5.5-8.9-5.5c-5.7,0-10,4.1-10.4,10.1h4.8C5.2,36.2,7.5,34,10.5,34"/>
	<path d="M15.7,45c-1.3,2.1-2.8,3.1-5.2,3.1c-3.3,0-5.3-2.2-5.6-6.1H0c0.4,5.8,4.3,10,10.3,10c4.6,0,7.6-2.3,9.2-5.5L15.7,45z"/>
	<path d="M55.5,34c2.3,0,3.8,1.2,5.1,3.5l3.7-1.9c-1.6-3.3-4.6-5.5-8.9-5.5c-5.7,0-10,4.1-10.4,10.1h4.8C50.2,36.2,52.5,34,55.5,34"
		/>
	<path d="M60.7,45c-1.3,2.1-2.8,3.1-5.2,3.1c-3.2,0-5.3-2.2-5.6-6.1h-4.8c0.4,5.8,4.3,10,10.3,10c4.6,0,7.6-2.3,9.2-5.5L60.7,45z"/>
	<path d="M75.7,34.2v-4.1c-5.3,0.5-8.9,4.7-9.3,10h4.8C71.5,36.9,73.3,34.7,75.7,34.2"/>
	<path d="M71.3,42h-4.8c0.4,5.3,4,9.5,9.3,10v-4.1C73.3,47.4,71.5,45.3,71.3,42"/>
	<path d="M82.2,40.2H87c-0.4-5.4-4-9.6-9.4-10v4.1C80.1,34.6,81.9,36.8,82.2,40.2"/>
	<path d="M77.6,47.9V52c5.4-0.5,9-4.6,9.4-10h-4.8C81.9,45.4,80.1,47.5,77.6,47.9"/>
	<rect x="105.2" y="42" width="4.7" height="9.5"/>
	<path d="M97,35.5c0.9-0.8,2.1-1.2,3.5-1.2c3.2,0,4.7,1.9,4.7,5.1v0.8h4.7v-1c0-5.2-2.2-9.1-8.1-9.1c-1.8-0.1-3.5,0.6-4.9,1.7
		L97,35.5z"/>
	<polygon points="95.4,30.6 90.7,30.6 90.7,51.5 95.4,51.5 	"/>
	<path d="M60,13.1h4.8c-0.4-5.3-4-9.5-9.4-10v4.1C57.9,7.6,59.7,9.7,60,13.1"/>
	<path d="M49,14.9h-4.8c0.4,5.3,4,9.5,9.3,10v-4.1C51.1,20.4,49.3,18.3,49,14.9"/>
	<path d="M53.5,7.2V3.1c-5.3,0.5-8.9,4.7-9.3,10H49C49.3,9.8,51.1,7.6,53.5,7.2"/>
	<path d="M55.4,20.9v4.1c5.4-0.5,9-4.7,9.4-10H60C59.7,18.3,57.9,20.4,55.4,20.9"/>
	<path d="M33.3,7c2.3,0,3.8,1.2,5.1,3.5l3.7-1.9c-1.6-3.3-4.6-5.5-8.9-5.5c-5.7,0-10,4.1-10.4,10h4.8C28,9.2,30.3,7,33.3,7"/>
	<path d="M38.5,17.9c-1.3,2.1-2.8,3.1-5.2,3.1c-3.2,0-5.4-2.2-5.6-6.1h-4.8c0.4,5.8,4.2,10,10.3,10c4.6,0,7.6-2.3,9.2-5.5L38.5,17.9
		z"/>
	<path d="M19.7,19.6l-3.8-1.5c-1.2,2-2.7,2.9-4.8,3V25C15.2,24.8,18.1,22.7,19.7,19.6"/>
	<path d="M9.2,24.9v-4c-2.5-0.5-4-2.4-4.3-5.4l0,0c0-0.1,0-0.1,0-0.2s0-0.1,0-0.1l0,0c0-0.1,0-0.2,0-0.3H0
		C0.3,20.3,3.5,24.3,9.2,24.9"/>
	<path d="M0,13.1h4.8c0-0.3,0-0.7,0-1l0,0v0l0,0c0.3-2.8,2-4.7,4.3-5.2V3.1C4,3.6,0.4,7.7,0,13.1"/>
	<path d="M6.5,15.2h13.4C20.8,8.5,17,3.4,11,3.1v3.7c2.4,0.3,4.1,2.1,4.4,5.2H6.5V15.2z"/>
	<polygon points="109.3,25 109.4,24.9 109.2,24.9 	"/>
	<polygon points="109.4,24.9 109.4,24.9 109.4,24.9 	"/>
	<polygon points="72.6,9.5 72.6,24.9 75.5,24.9 75.5,10.8 79.4,6.9 79.4,24.9 82.4,24.9 82.4,6.9 86.2,10.6 86.2,24.9 89.2,24.9 
		89.2,13.7 93.1,17.6 93.1,17.6 93.1,24.9 96.1,24.9 96.1,20.6 100.5,24.9 104.7,24.9 80.9,1.1 	"/>
	<polygon points="85.2,1 109.2,24.9 109.4,24.9 109.4,24.9 109.4,20.8 89.5,1 	"/>
	<polygon points="109.4,12.4 97.9,1 93.6,1 109.4,16.7 	"/>
</g>
</svg>
